<?xml version="1.0" encoding="UTF-8" standalone="no" ?>
<!DOCTYPE svg PUBLIC "-//W3C//DTD SVG 1.1//EN" "http://www.w3.org/Graphics/SVG/1.1/DTD/svg11.dtd">
<svg xmlns="http://www.w3.org/2000/svg" xmlns:xlink="http://www.w3.org/1999/xlink" version="1.1" width="500" height="500" viewBox="0 0 500 500" xml:space="preserve">
<desc>Created with Fabric.js 3.6.3</desc>
<defs>
</defs>
<g transform="matrix(1 0 0 1 249.57779823148087 260.45379463630013)" style=""  ><path fill="#ffffff" opacity="1" d="M-210.06-16.77Q-205.44-11.22-205.44-2.02Q-205.44 7.17-210.06 12.73Q-214.69 18.28-223.03 18.28L-223.03 18.28Q-231.44 18.28-236.06 12.73Q-240.69 7.17-240.69-2.02Q-240.69-11.22-236.06-16.77Q-231.44-22.33-223.03-22.33L-223.03-22.33Q-214.69-22.33-210.06-16.77ZM-212.12 7.00Q-210.96 3.17-210.96-2.02Q-210.96-7.21-212.12-11.05Q-213.28-14.88-216.04-17.31Q-218.80-19.73-223.03-19.73L-223.03-19.73Q-229.29-19.73-232.23-14.88Q-235.16-10.03-235.16-2.02Q-235.16 5.99-232.23 10.84Q-229.29 15.69-223.03 15.69L-223.03 15.69Q-218.80 15.69-216.04 13.26Q-213.28 10.84-212.12 7.00Z"/><path fill="#ffffff" opacity="1" d="M-177.74-0.16L-165.73 17.72L-171.26 17.72L-183.05 0.29Q-187.50 0.29-192.35-0.61L-192.35-0.61L-192.35 17.72L-196.98 17.72L-196.98-21.76L-192.47-21.76Q-188.01-22.33-183.05-22.33L-183.05-22.33Q-176.00-22.33-171.68-19.53Q-167.37-16.74-167.37-11.05L-167.37-11.05Q-167.37-6.48-170.13-3.80Q-172.89-1.12-177.74-0.16L-177.74-0.16ZM-172.89-11.05L-172.89-11.05Q-172.89-14.77-175.91-17.25Q-178.93-19.73-183.05-19.73L-183.05-19.73Q-187.90-19.73-192.35-19.17L-192.35-19.17L-192.35-3.21Q-187.50-2.30-183.05-2.30L-183.05-2.30Q-178.93-2.30-175.91-4.79Q-172.89-7.27-172.89-11.05Z"/><path fill="#ffffff" opacity="1" d="M-154.90-21.76L-154.90 17.72L-159.53 17.72L-159.53-21.76L-154.90-21.76Z"/><path fill="#ffffff" opacity="1" d="M-112.72 1.14L-112.72 17.72L-117.34 17.72L-117.34 14.62Q-121.85 18.28-127.66 18.28L-127.66 18.28Q-136.23 18.28-141.06 12.73Q-145.88 7.17-145.88-2.02Q-145.88-11.22-141.06-16.77Q-136.23-22.33-127.66-22.33L-127.66-22.33Q-119.37-22.33-113.62-16.46L-113.62-16.46L-113.62-13.87Q-119.37-19.73-127.66-19.73L-127.66-19.73Q-134.09-19.73-137.22-14.85Q-140.35-9.97-140.35-2.02Q-140.35 5.93-137.22 10.81Q-134.09 15.69-127.66 15.69L-127.66 15.69Q-121.85 15.69-117.34 12.02L-117.34 12.02L-117.34 1.14L-112.72 1.14Z"/><path fill="#ffffff" opacity="1" d="M-97.94-21.76L-97.94 17.72L-102.56 17.72L-102.56-21.76L-97.94-21.76Z"/><path fill="#ffffff" opacity="1" d="M-53.50-21.76L-53.50 17.72L-56.88 17.72L-84.06-15.45L-84.06 17.72L-86.66 17.72L-86.66-21.76L-83.27-21.76L-56.09 11.40L-56.09-21.76L-53.50-21.76Z"/><path fill="#ffffff" opacity="1" d="M-27.78-21.76L-13.45 17.72L-18.36 17.72L-23.38 3.90L-39.40 3.90L-44.53 17.72L-47.29 17.72L-32.68-21.76L-27.78-21.76ZM-38.44 1.31L-24.34 1.31L-31.33-17.98L-38.44 1.31Z"/><path fill="#ffffff" opacity="1" d="M15.31 15.12L15.31 17.72L-7.25 17.72L-7.25-21.76L-2.62-21.76L-2.62 15.12L15.31 15.12Z"/><path fill="#ffffff" opacity="1" d="M49.49-15.33L49.49-12.29Q47.35-15.73 43.77-17.73Q40.18-19.73 36.12-19.73L36.12-19.73Q29.86-19.73 26.93-14.88Q24.00-10.03 24.00-2.02Q24.00 5.99 26.93 10.84Q29.86 15.69 36.12 15.69L36.12 15.69Q42.89 15.69 48.59 11.96L48.59 11.96L48.59 14.56Q42.89 18.28 36.12 18.28L36.12 18.28Q27.72 18.28 23.10 12.73Q18.47 7.17 18.47-2.02Q18.47-11.22 23.10-16.77Q27.72-22.33 36.12-22.33L36.12-22.33Q40.13-22.33 43.68-20.47Q47.23-18.60 49.49-15.33L49.49-15.33Z"/><path fill="#ffffff" opacity="1" d="M85.19-16.77Q89.82-11.22 89.82-2.02Q89.82 7.17 85.19 12.73Q80.57 18.28 72.22 18.28L72.22 18.28Q63.82 18.28 59.19 12.73Q54.57 7.17 54.57-2.02Q54.57-11.22 59.19-16.77Q63.82-22.33 72.22-22.33L72.22-22.33Q80.57-22.33 85.19-16.77ZM83.13 7.00Q84.29 3.17 84.29-2.02Q84.29-7.21 83.13-11.05Q81.98-14.88 79.21-17.31Q76.45-19.73 72.22-19.73L72.22-19.73Q65.96-19.73 63.03-14.88Q60.09-10.03 60.09-2.02Q60.09 5.99 63.03 10.84Q65.96 15.69 72.22 15.69L72.22 15.69Q76.45 15.69 79.21 13.26Q81.98 10.84 83.13 7.00Z"/><path fill="#ffffff" opacity="1" d="M127.04 15.12L127.04 17.72L98.84 17.72L98.84-21.76L125.69-21.76L125.69-19.17L103.47-19.17L103.47-3.32L121.40-3.32L121.40-0.73L103.47-0.73L103.47 15.12L127.04 15.12Z"/><path fill="#ffffff" opacity="1" d="M158.62 15.12L158.62 17.72L136.06 17.72L136.06-21.76L140.69-21.76L140.69 15.12L158.62 15.12Z"/><path fill="#ffffff" opacity="1" d="M196.41-21.76L196.41 17.72L191.79 17.72L191.79-0.73L170.02-0.73L170.02 17.72L165.39 17.72L165.39-21.76L170.02-21.76L170.02-3.32L191.79-3.32L191.79-21.76L196.41-21.76Z"/><path fill="#ffffff" opacity="1" d="M236.06-16.77Q240.69-11.22 240.69-2.02Q240.69 7.17 236.06 12.73Q231.44 18.28 223.09 18.28L223.09 18.28Q214.69 18.28 210.06 12.73Q205.44 7.17 205.44-2.02Q205.44-11.22 210.06-16.77Q214.69-22.33 223.09-22.33L223.09-22.33Q231.44-22.33 236.06-16.77ZM234.00 7.00Q235.16 3.17 235.16-2.02Q235.16-7.21 234.00-11.05Q232.85-14.88 230.08-17.31Q227.32-19.73 223.09-19.73L223.09-19.73Q216.83-19.73 213.90-14.88Q210.96-10.03 210.96-2.02Q210.96 5.99 213.90 10.84Q216.83 15.69 223.09 15.69L223.09 15.69Q227.32 15.69 230.08 13.26Q232.85 10.84 234.00 7.00Z"/></g><g transform="matrix(1.0496418072948723 0 0 1.0496418072948723 248.0027964727998 175.54681311902192)"  >
<path style="stroke: none; stroke-width: 0; stroke-dasharray: none; stroke-linecap: butt; stroke-dashoffset: 0; stroke-linejoin: miter; stroke-miterlimit: 4; fill: rgb(255,255,255); fill-rule: nonzero; opacity: 1;"  transform=" translate(-50.025, -49.99766912228151)" d="M 69.9 48.71 a 91.25 91.25 0 0 0 5.29 -17.77 c 0.1 -0.48 0.2 -1 0.28 -1.45 C 77.69 16.94 75.18 6 69.86 5.06 s -11.42 8.48 -13.64 21 c -0.09 0.49 -0.16 1 -0.23 1.46 a 91.8 91.8 0 0 0 -1.19 16.6 a 44.44 44.44 0 0 0 -9.6 0 A 91.8 91.8 0 0 0 44 27.54 c -0.07 -0.48 -0.14 -1 -0.23 -1.46 c -2.22 -12.54 -8.33 -21.95 -13.64 -21 s -7.83 11.88 -5.61 24.43 c 0.08 0.49 0.18 1 0.28 1.45 A 91.25 91.25 0 0 0 30.1 48.71 C 21.53 53.35 16 60.9 16 69.44 C 16 83.56 31.19 95 50 95 S 84.05 83.56 84.05 69.44 C 84.05 60.9 78.47 53.35 69.9 48.71 Z M 34.13 83.24 c -5.29 0 -9.58 -6.17 -9.58 -13.78 s 4.29 -13.78 9.58 -13.78 c 3.86 0 7.18 3.29 8.7 8 c -1.22 -2.32 -3.14 -3.83 -5.32 -3.83 c -3.68 0 -6.66 4.29 -6.66 9.58 s 3 9.58 6.66 9.58 c 2.18 0 4.1 -1.51 5.32 -3.83 C 41.31 79.94 38 83.24 34.13 83.24 Z m 31.74 0 c -3.86 0 -7.18 -3.3 -8.7 -8 C 58.39 77.53 60.31 79 62.49 79 c 3.68 0 6.66 -4.29 6.66 -9.58 s -3 -9.58 -6.66 -9.58 c -2.18 0 -4.1 1.51 -5.32 3.83 c 1.52 -4.74 4.84 -8 8.7 -8 c 5.29 0 9.58 6.17 9.58 13.78 S 71.16 83.24 65.87 83.24 Z" stroke-linecap="round" />
</g>
</svg>