<?xml version="1.0" encoding="UTF-8" standalone="no" ?>
<!DOCTYPE svg PUBLIC "-//W3C//DTD SVG 1.1//EN" "http://www.w3.org/Graphics/SVG/1.1/DTD/svg11.dtd">
<svg xmlns="http://www.w3.org/2000/svg" xmlns:xlink="http://www.w3.org/1999/xlink" version="1.1" width="500" height="500" viewBox="0 0 500 500" xml:space="preserve">
<desc>Created with Fabric.js 3.6.3</desc>
<defs>
</defs>
<g transform="matrix(1 0 0 1 -336.4002199404563 290.46949578243994)" style=""  ><path fill="#141414" opacity="1" d="M-209.13-16.70Q-204.53-11.17-204.53-2.01Q-204.53 7.14-209.13 12.67Q-213.73 18.20-222.05 18.20L-222.05 18.20Q-230.41 18.20-235.02 12.67Q-239.62 7.14-239.62-2.01Q-239.62-11.17-235.02-16.70Q-230.41-22.23-222.05-22.23L-222.05-22.23Q-213.73-22.23-209.13-16.70ZM-211.18 6.97Q-210.03 3.15-210.03-2.01Q-210.03-7.18-211.18-11.00Q-212.33-14.82-215.08-17.23Q-217.83-19.64-222.05-19.64L-222.05-19.64Q-228.28-19.64-231.20-14.82Q-234.12-9.99-234.12-2.01Q-234.12 5.96-231.20 10.79Q-228.28 15.62-222.05 15.62L-222.05 15.62Q-217.83 15.62-215.08 13.20Q-212.33 10.79-211.18 6.97Z"/><path fill="#141414" opacity="1" d="M-176.96-0.16L-165.00 17.64L-170.50 17.64L-182.23 0.29Q-186.67 0.29-191.50-0.61L-191.50-0.61L-191.50 17.64L-196.10 17.64L-196.10-21.67L-191.61-21.67Q-187.18-22.23-182.23-22.23L-182.23-22.23Q-175.22-22.23-170.92-19.45Q-166.63-16.67-166.63-11.00L-166.63-11.00Q-166.63-6.45-169.38-3.78Q-172.13-1.12-176.96-0.16L-176.96-0.16ZM-172.13-11.00L-172.13-11.00Q-172.13-14.70-175.13-17.17Q-178.14-19.64-182.23-19.64L-182.23-19.64Q-187.06-19.64-191.50-19.08L-191.50-19.08L-191.50-3.19Q-186.67-2.29-182.23-2.29L-182.23-2.29Q-178.14-2.29-175.13-4.76Q-172.13-7.24-172.13-11.00Z"/><path fill="#141414" opacity="1" d="M-154.22-21.67L-154.22 17.64L-158.82 17.64L-158.82-21.67L-154.22-21.67Z"/><path fill="#141414" opacity="1" d="M-112.22 1.13L-112.22 17.64L-116.82 17.64L-116.82 14.55Q-121.31 18.20-127.10 18.20L-127.10 18.20Q-135.63 18.20-140.43 12.67Q-145.23 7.14-145.23-2.01Q-145.23-11.17-140.43-16.70Q-135.63-22.23-127.10-22.23L-127.10-22.23Q-118.84-22.23-113.11-16.39L-113.11-16.39L-113.11-13.81Q-118.84-19.64-127.10-19.64L-127.10-19.64Q-133.50-19.64-136.61-14.79Q-139.73-9.93-139.73-2.01Q-139.73 5.90-136.61 10.76Q-133.50 15.62-127.10 15.62L-127.10 15.62Q-121.31 15.62-116.82 11.97L-116.82 11.97L-116.82 1.13L-112.22 1.13Z"/><path fill="#141414" opacity="1" d="M-97.50-21.67L-97.50 17.64L-102.11 17.64L-102.11-21.67L-97.50-21.67Z"/><path fill="#141414" opacity="1" d="M-53.26-21.67L-53.26 17.64L-56.63 17.64L-83.69-15.38L-83.69 17.64L-86.27 17.64L-86.27-21.67L-82.91-21.67L-55.84 11.35L-55.84-21.67L-53.26-21.67Z"/><path fill="#141414" opacity="1" d="M-27.65-21.67L-13.39 17.64L-18.28 17.64L-23.27 3.88L-39.22 3.88L-44.33 17.64L-47.08 17.64L-32.54-21.67L-27.65-21.67ZM-38.27 1.30L-24.23 1.30L-31.19-17.90L-38.27 1.30Z"/><path fill="#141414" opacity="1" d="M15.24 15.06L15.24 17.64L-7.22 17.64L-7.22-21.67L-2.61-21.67L-2.61 15.06L15.24 15.06Z"/><path fill="#141414" opacity="1" d="M49.27-15.26L49.27-12.23Q47.14-15.66 43.57-17.65Q40.01-19.64 35.96-19.64L35.96-19.64Q29.73-19.64 26.81-14.82Q23.89-9.99 23.89-2.01Q23.89 5.96 26.81 10.79Q29.73 15.62 35.96 15.62L35.96 15.62Q42.70 15.62 48.37 11.91L48.37 11.91L48.37 14.49Q42.70 18.20 35.96 18.20L35.96 18.20Q27.60 18.20 22.99 12.67Q18.39 7.14 18.39-2.01Q18.39-11.17 22.99-16.70Q27.60-22.23 35.96-22.23L35.96-22.23Q39.95-22.23 43.49-20.37Q47.03-18.52 49.27-15.26L49.27-15.26Z"/><path fill="#141414" opacity="1" d="M84.81-16.70Q89.42-11.17 89.42-2.01Q89.42 7.14 84.81 12.67Q80.21 18.20 71.90 18.20L71.90 18.20Q63.53 18.20 58.93 12.67Q54.33 7.14 54.33-2.01Q54.33-11.17 58.93-16.70Q63.53-22.23 71.90-22.23L71.90-22.23Q80.21-22.23 84.81-16.70ZM82.77 6.97Q83.92 3.15 83.92-2.01Q83.92-7.18 82.77-11.00Q81.61-14.82 78.86-17.23Q76.11-19.64 71.90-19.64L71.90-19.64Q65.67-19.64 62.75-14.82Q59.83-9.99 59.83-2.01Q59.83 5.96 62.75 10.79Q65.67 15.62 71.90 15.62L71.90 15.62Q76.11 15.62 78.86 13.20Q81.61 10.79 82.77 6.97Z"/><path fill="#141414" opacity="1" d="M126.48 15.06L126.48 17.64L98.40 17.64L98.40-21.67L125.13-21.67L125.13-19.08L103.01-19.08L103.01-3.30L120.86-3.30L120.86-0.72L103.01-0.72L103.01 15.06L126.48 15.06Z"/><path fill="#141414" opacity="1" d="M157.92 15.06L157.92 17.64L135.46 17.64L135.46-21.67L140.07-21.67L140.07 15.06L157.92 15.06Z"/><path fill="#141414" opacity="1" d="M195.54-21.67L195.54 17.64L190.94 17.64L190.94-0.72L169.26-0.72L169.26 17.64L164.66 17.64L164.66-21.67L169.26-21.67L169.26-3.30L190.94-3.30L190.94-21.67L195.54-21.67Z"/><path fill="#141414" opacity="1" d="M235.02-16.70Q239.62-11.17 239.62-2.01Q239.62 7.14 235.02 12.67Q230.41 18.20 222.10 18.20L222.10 18.20Q213.73 18.20 209.13 12.67Q204.53 7.14 204.53-2.01Q204.53-11.17 209.13-16.70Q213.73-22.23 222.10-22.23L222.10-22.23Q230.41-22.23 235.02-16.70ZM232.97 6.97Q234.12 3.15 234.12-2.01Q234.12-7.18 232.97-11.00Q231.82-14.82 229.06-17.23Q226.31-19.64 222.10-19.64L222.10-19.64Q215.87-19.64 212.95-14.82Q210.03-9.99 210.03-2.01Q210.03 5.96 212.95 10.79Q215.87 15.62 222.10 15.62L222.10 15.62Q226.31 15.62 229.06 13.20Q231.82 10.79 232.97 6.97Z"/></g><g transform="matrix(4.377639773969875 0 0 4.377639773969875 248 237.54681311902192)"  >
<path style="stroke: none; stroke-width: 0; stroke-dasharray: none; stroke-linecap: butt; stroke-dashoffset: 0; stroke-linejoin: miter; stroke-miterlimit: 4; fill: rgb(20,20,20); fill-rule: nonzero; opacity: 1;"  transform=" translate(-50.025, -49.99766912228151)" d="M 69.9 48.71 a 91.25 91.25 0 0 0 5.29 -17.77 c 0.1 -0.48 0.2 -1 0.28 -1.45 C 77.69 16.94 75.18 6 69.86 5.06 s -11.42 8.48 -13.64 21 c -0.09 0.49 -0.16 1 -0.23 1.46 a 91.8 91.8 0 0 0 -1.19 16.6 a 44.44 44.44 0 0 0 -9.6 0 A 91.8 91.8 0 0 0 44 27.54 c -0.07 -0.48 -0.14 -1 -0.23 -1.46 c -2.22 -12.54 -8.33 -21.95 -13.64 -21 s -7.83 11.88 -5.61 24.43 c 0.08 0.49 0.18 1 0.28 1.45 A 91.25 91.25 0 0 0 30.1 48.71 C 21.53 53.35 16 60.9 16 69.44 C 16 83.56 31.19 95 50 95 S 84.05 83.56 84.05 69.44 C 84.05 60.9 78.47 53.35 69.9 48.71 Z M 34.13 83.24 c -5.29 0 -9.58 -6.17 -9.58 -13.78 s 4.29 -13.78 9.58 -13.78 c 3.86 0 7.18 3.29 8.7 8 c -1.22 -2.32 -3.14 -3.83 -5.32 -3.83 c -3.68 0 -6.66 4.29 -6.66 9.58 s 3 9.58 6.66 9.58 c 2.18 0 4.1 -1.51 5.32 -3.83 C 41.31 79.94 38 83.24 34.13 83.24 Z m 31.74 0 c -3.86 0 -7.18 -3.3 -8.7 -8 C 58.39 77.53 60.31 79 62.49 79 c 3.68 0 6.66 -4.29 6.66 -9.58 s -3 -9.58 -6.66 -9.58 c -2.18 0 -4.1 1.51 -5.32 3.83 c 1.52 -4.74 4.84 -8 8.7 -8 c 5.29 0 9.58 6.17 9.58 13.78 S 71.16 83.24 65.87 83.24 Z" stroke-linecap="round" />
</g>
</svg>